# xmcd
#
# Track frame offsets: 
#        182
#        15407
#        29760
#        42445
#        55460
#        68782
#        82935
#        94912
#        109380
#        123402
#        138925
#        153300
#        167407
#        180820
#        193930
#        208287
#        221042
#        236712
#        250952
#        264122
#        277167
#        293370
#        305967
#        318700
#        331207
#
# Disc length: 4559 seconds
#
# Revision: 6
# Processed by: cddbd v1.5.2PL0 Copyright (c) Steve Scherf et al.
# Submitted via: ExactAudioCopy v1.3
#
DISCID=7711cd19
DTITLE=Kid Ory - Ory's CreoleTrombone 1922-1944
DYEAR=1994
DGENRE=Jazz
TTITLE0=Kid Ory, Ory's Sunshine Orch. - Ory's Creole Trombone (1922)
TTITLE1=Kid Ory, Ory's Sunshine Orch. - Society Blues (1922)
TTITLE2=Kid Ory, King Oliver and His Dixie Syncopators - Wawawa (1926)
TTITLE3=Kid Ory, King Oliver and His Dixie Syncopators - Tack Annie (192
TTITLE3=6)
TTITLE4=Kid Ory, King Oliver and His Dixie Syncopators - New Wang Wang B
TTITLE4=lues (1926)
TTITLE5=Kid Ory, King Oliver and His Dixie Syncopators - Snag It (1926)
TTITLE6=Kid Ory, Louis Armstrong and His Hot Five - Muskrat Ramble (1926
TTITLE6=)
TTITLE7=Kid Ory, Louis Armstrong and His Hot Five - Skid-Dat-De-Dat (192
TTITLE7=6)
TTITLE8=Kid Ory, Louis Armstrong and His Hot Five - Ory's Creole Trombon
TTITLE8=e (2) (1927)
TTITLE9=Kid Ory, Louis Armstrong and His Hot Five - Savoy Blues (1927)
TTITLE10=Kid Ory, The New Orleans Wanderers - Perdido Street Blues (19
TTITLE10=26)
TTITLE11=Kid Ory, The New Orleans Wanderers - Gate Mouth (1926)
TTITLE12=Kid Ory, The New Orleans Wanderers - Too Tight (1926)
TTITLE13=Kid Ory, The New Orleans Wanderers - Papa Dip (1926)
TTITLE14=Kid Ory, The New Orleans Bootblacks - I Can't Say (1926)
TTITLE15=Kid Ory, The New Orleans Bootblacks - Mad Dog (1926)
TTITLE16=Kid Ory, Jelly Roll Morton's Red Hot Peppers - Smokehouse Blu
TTITLE16=es (1926)
TTITLE17=Kid Ory, Jelly Roll Morton's Red Hot Peppers - Steamboat Stom
TTITLE17=p (1926)
TTITLE18=Kid Ory, Jelly Roll Morton's Red Hot Peppers - Grandpa's Spel
TTITLE18=ls (1926)
TTITLE19=Kid Ory, Jelly Roll Morton's Red Hot Peppers - Cannon Ball Bl
TTITLE19=ues (1926)
TTITLE20=Kid Ory, Kid Ory's Creole Jazz Band - High Society (1944)
TTITLE21=Kid Ory, Kid Ory's Creole Jazz Band - Sugar Foot Stomp (1944)
TTITLE22=Kid Ory, Kid Ory's Creole Jazz Band - Muskrat Ramble (1944)
TTITLE23=Kid Ory, Kid Ory's Creole Jazz Band - That's a Plenty (1944)
TTITLE24=Kid Ory, Kid Ory's Creole Jazz Band - Panama Rag (1944)
EXTD=
EXTT0=
EXTT1=
EXTT2=
EXTT3=
EXTT4=
EXTT5=
EXTT6=
EXTT7=
EXTT8=
EXTT9=
EXTT10=
EXTT11=
EXTT12=
EXTT13=
EXTT14=
EXTT15=
EXTT16=
EXTT17=
EXTT18=
EXTT19=
EXTT20=
EXTT21=
EXTT22=
EXTT23=
EXTT24=
PLAYORDER=
